# Blender v2.82 (sub 7) OBJ File: ''
# www.blender.org
mtllib material_test.mtl
o Cube
v -1.000000 -1.000000 -1.000000
v -1.000000 -1.000000 1.000000
v -1.000000 1.000000 -1.000000
v -1.000000 1.000000 1.000000
v 1.000000 -1.000000 -1.000000
v 1.000000 -1.000000 1.000000
v 1.000000 1.000000 -1.000000
v 1.000000 1.000000 1.000000
vt 0.625000 0.500000
vt 0.875000 0.500000
vt 0.875000 0.750000
vt 0.625000 0.750000
vt 0.375000 0.000000
vt 0.625000 0.000000
vt 0.625000 0.250000
vt 0.375000 0.250000
vt 0.375000 0.500000
vt 0.375000 0.750000
vt 0.625000 1.000000
vt 0.375000 1.000000
vt 0.125000 0.500000
vt 0.125000 0.750000
vn 0.0000 0.0000 1.0000
vn -1.0000 0.0000 0.0000
vn 0.0000 1.0000 0.0000
vn 1.0000 0.0000 0.0000
vn 0.0000 -1.0000 0.0000
vn 0.0000 0.0000 -1.0000
usemtl top
s off
f 8/1/1 4/2/1 2/3/1 6/4/1
usemtl sides
f 1/5/2 2/6/2 4/7/2 3/8/2
f 3/8/3 4/7/3 8/1/3 7/9/3
f 7/9/4 8/1/4 6/4/4 5/10/4
f 5/10/5 6/4/5 2/11/5 1/12/5
usemtl fox
f 3/13/6 7/9/6 5/10/6 1/14/6
